<?xml version="1.0" encoding="UTF-8"?>
<svg version="1.1" xmlns="http://www.w3.org/2000/svg" width="100" height="100">
<path d="M0 0 C1.24008316 -0.0038269 2.48016632 -0.00765381 3.75782776 -0.01159668 C7.04497559 -0.01500874 10.33136147 0.00103309 13.6184082 0.0234375 C15.62581597 0.03123799 17.63252338 0.02347115 19.63989258 0.00976562 C23.510256 -0.01500318 27.37959285 -0.01193489 31.25 0 C32.4418541 -0.00809692 33.63370819 -0.01619385 34.86167908 -0.02453613 C43.36957434 0.07113332 48.14806411 1.27892459 54.24609375 7.4309082 C63.78168219 18.85985007 63.70734222 30.5908797 63.29589844 44.9621582 C63.19051775 48.75069233 63.17285418 52.53239166 63.16796875 56.32226562 C63.13917193 58.73964887 63.10549632 61.15698004 63.06640625 63.57421875 C63.05335449 65.26480659 63.05335449 65.26480659 63.04003906 66.98954773 C62.88774753 71.53796938 62.64383164 74.70358249 60.44262695 78.73046875 C55.24727875 81.60806043 50.14349538 81.30418996 44.296875 81.30078125 C43.03555252 81.3126799 41.77423004 81.32457855 40.47468567 81.33683777 C37.80669778 81.35338249 35.14115527 81.35904812 32.47338867 81.34790039 C29.07284009 81.33623209 25.67604282 81.38364573 22.27617931 81.44736195 C19.01230274 81.49798512 15.7485799 81.48967243 12.484375 81.48828125 C10.66681953 81.52668877 10.66681953 81.52668877 8.81254578 81.56587219 C2.65720871 81.48232342 -0.9936858 81.08918948 -5.47631836 76.6574707 C-6.61889368 75.30837836 -7.73348181 73.93469676 -8.80859375 72.53125 C-9.6696875 71.54898438 -10.53078125 70.56671875 -11.41796875 69.5546875 C-12.124375 68.68070312 -12.83078125 67.80671875 -13.55859375 66.90625 C-14.2753125 66.02710937 -14.99203125 65.14796875 -15.73046875 64.2421875 C-16.75914063 62.90027344 -16.75914063 62.90027344 -17.80859375 61.53125 C-18.50122314 60.70133545 -19.19385254 59.8714209 -19.9074707 59.01635742 C-22.49828275 54.26692349 -22.36702823 50.38337539 -22.3046875 45.05859375 C-22.30614273 44.05792374 -22.30759796 43.05725372 -22.30909729 42.02626038 C-22.30744202 39.91746092 -22.29592263 37.80864893 -22.27514648 35.69995117 C-22.24615783 32.47587727 -22.25455275 29.25344549 -22.26757812 26.02929688 C-22.26134122 23.97655453 -22.25295066 21.92381736 -22.2421875 19.87109375 C-22.24512314 18.90952866 -22.24805878 17.94796356 -22.25108337 16.95726013 C-22.12940285 8.31185669 -22.12940285 8.31185669 -18.80859375 4.53125 C-13.31551019 -0.7140633 -7.27719376 -0.04935418 0 0 Z M-11.80859375 11.53125 C-8.24677752 13.80315719 -4.68402119 16.07358594 -1.12109375 18.34375 C0.39000977 19.30764648 0.39000977 19.30764648 1.93164062 20.29101562 C2.90810547 20.91298828 3.88457031 21.53496094 4.890625 22.17578125 C5.78612061 22.74659424 6.68161621 23.31740723 7.60424805 23.90551758 C8.45801025 24.44200928 9.31177246 24.97850098 10.19140625 25.53125 C11.02260986 26.13670654 11.85381348 26.74216309 12.71020508 27.3659668 C15.13715696 28.82537634 15.13715696 28.82537634 17.69067383 27.90209961 C22.18054074 25.44084776 26.52808782 22.79273228 30.87890625 20.09375 C31.84119141 19.50787109 32.80347656 18.92199219 33.79492188 18.31835938 C35.17260742 17.46661133 35.17260742 17.46661133 36.578125 16.59765625 C37.41561279 16.08146729 38.25310059 15.56527832 39.1159668 15.03344727 C41.44133905 13.53420121 41.44133905 13.53420121 43.19140625 10.53125 C41.5402185 8.88006225 39.60910169 9.39544969 37.33618164 9.38598633 C36.30163345 9.37960648 35.26708527 9.37322662 34.20118713 9.36665344 C33.075186 9.36554062 31.94918488 9.3644278 30.7890625 9.36328125 C29.64102646 9.35995285 28.49299042 9.35662445 27.31016541 9.35319519 C24.87645876 9.34812099 22.44274513 9.34578702 20.0090332 9.34594727 C16.27348433 9.34376146 12.5382309 9.32561254 8.80273438 9.30664062 C6.44401143 9.30370675 4.08528708 9.30172192 1.7265625 9.30078125 C0.04059715 9.29000298 0.04059715 9.29000298 -1.6794281 9.27900696 C-2.71712845 9.28208359 -3.7548288 9.28516022 -4.82397461 9.28833008 C-6.19845009 9.28619255 -6.19845009 9.28619255 -7.60069275 9.28401184 C-10.01524032 9.32187952 -10.01524032 9.32187952 -11.80859375 11.53125 Z M-12.80859375 22.53125 C-12.85798003 26.76707327 -12.89430638 31.00274465 -12.91845703 35.23876953 C-12.92852338 36.68020547 -12.94217755 38.12162095 -12.95947266 39.56298828 C-12.98369387 41.63318934 -12.99507016 43.70312076 -13.00390625 45.7734375 C-13.01437988 47.0197998 -13.02485352 48.26616211 -13.03564453 49.55029297 C-13.12511867 52.64896631 -13.12511867 52.64896631 -10.80859375 54.53125 C-8.15567618 54.70635386 -5.60873201 54.76280483 -2.95703125 54.7265625 C-1.79598373 54.72231766 -1.79598373 54.72231766 -0.61148071 54.71798706 C1.86463782 54.70677754 4.34039675 54.68167203 6.81640625 54.65625 C8.49348437 54.64622118 10.17056814 54.63709516 11.84765625 54.62890625 C15.96237848 54.60683574 20.07683136 54.57230102 24.19140625 54.53125 C24.37316406 53.97912842 24.55492187 53.42700684 24.7421875 52.8581543 C24.99355469 52.13539307 25.24492188 51.41263184 25.50390625 50.66796875 C25.74753906 49.95084717 25.99117187 49.23372559 26.2421875 48.49487305 C27.72880671 45.41954427 30.33228804 44.25863392 33.19140625 42.53125 C33.62453125 41.70625 34.05765625 40.88125 34.50390625 40.03125 C37.16377515 36.09070348 40.82017586 35.24173146 45.19140625 33.53125 C45.19140625 29.90125 45.19140625 26.27125 45.19140625 22.53125 C41.39647183 24.04922377 38.65980033 25.38270215 35.3203125 27.5703125 C34.41603516 28.15039062 33.51175781 28.73046875 32.58007812 29.328125 C30.69514058 30.54740733 28.81490837 31.77399462 26.93945312 33.0078125 C26.03388672 33.5853125 25.12832031 34.1628125 24.1953125 34.7578125 C23.37877197 35.28971191 22.56223145 35.82161133 21.72094727 36.36962891 C18.6052184 37.8004404 16.59003503 37.90745635 13.19140625 37.53125 C10.73779297 36.47729492 10.73779297 36.47729492 8.37109375 35.01171875 C7.50613281 34.48384766 6.64117187 33.95597656 5.75 33.41210938 C4.86441406 32.85330078 3.97882812 32.29449219 3.06640625 31.71875 C2.17308594 31.17154297 1.27976562 30.62433594 0.359375 30.06054688 C-6.13382559 26.0568918 -6.13382559 26.0568918 -8.96826172 23.84887695 C-10.70238914 22.33720135 -10.70238914 22.33720135 -12.80859375 22.53125 Z M43.19140625 43.53125 C40.84166807 45.42880144 40.84166807 45.42880144 41.06640625 48.65625 C41.12828125 50.079375 41.12828125 50.079375 41.19140625 51.53125 C40.24265625 51.49 39.29390625 51.44875 38.31640625 51.40625 C35.08895769 51.18151182 35.08895769 51.18151182 33.19140625 53.53125 C33.59669526 56.31362655 33.59669526 56.31362655 35.19140625 58.53125 C37.19098989 58.57205783 39.19185879 58.57379356 41.19140625 58.53125 C41.12953125 59.459375 41.06765625 60.3875 41.00390625 61.34375 C40.88246361 64.51520103 40.88246361 64.51520103 42.69140625 66.40625 C43.18640625 66.7775 43.68140625 67.14875 44.19140625 67.53125 C46.88195905 66.31117056 46.88195905 66.31117056 49.19140625 64.53125 C49.23221408 62.53166636 49.23394981 60.53079746 49.19140625 58.53125 C50.14015625 58.5725 51.08890625 58.61375 52.06640625 58.65625 C55.29385481 58.88098818 55.29385481 58.88098818 57.19140625 56.53125 C56.78611724 53.74887345 56.78611724 53.74887345 55.19140625 51.53125 C53.19182261 51.49044217 51.19095371 51.48870644 49.19140625 51.53125 C48.86140625 49.22125 48.53140625 46.91125 48.19140625 44.53125 C45.79421193 43.85166397 45.79421193 43.85166397 43.19140625 43.53125 Z " fill="#1EF100" transform="translate(29.80859375,11.46875)"/>
</svg>
